0
SECTION
2
HEADER
9
$INSUNITS
70
4
9
$ACADVER
1
AC1014
9
$HANDSEED
5
FFFF
0
ENDSEC
0
SECTION
2
TABLES
0
TABLE
2
VPORT
5
8
100
AcDbSymbolTable
0
ENDTAB
0
TABLE
2
LTYPE
5
5
100
AcDbSymbolTable
0
LTYPE
5
14
100
AcDbSymbolTableRecord
100
AcDbLinetypeTableRecord
2
BYBLOCK
70
0
0
LTYPE
5
15
100
AcDbSymbolTableRecord
100
AcDbLinetypeTableRecord
2
BYLAYER
70
0
0
ENDTAB
0
TABLE
2
LAYER
5
2
100
AcDbSymbolTable
70
2
0
LAYER
5
50
100
AcDbSymbolTableRecord
100
AcDbLayerTableRecord
2
0
70
0
6
CONTINUOUS
0
ENDTAB
0
TABLE
2
STYLE
5
3
100
AcDbSymbolTable
70
1
0
STYLE
5
11
100
AcDbSymbolTableRecord
100
AcDbTextStyleTableRecord
2
STANDARD
70
0
0
ENDTAB
0
TABLE
2
VIEW
5
6
100
AcDbSymbolTable
70
0
0
ENDTAB
0
TABLE
2
UCS
5
7
100
AcDbSymbolTable
70
0
0
ENDTAB
0
TABLE
2
APPID
5
9
100
AcDbSymbolTable
70
2
0
APPID
5
12
100
AcDbSymbolTableRecord
100
AcDbRegAppTableRecord
2
ACAD
70
0
0
ENDTAB
0
TABLE
2
DIMSTYLE
5
A
100
AcDbSymbolTable
70
1
0
ENDTAB
0
TABLE
2
BLOCK_RECORD
5
1
100
AcDbSymbolTable
70
1
0
BLOCK_RECORD
5
1F
100
AcDbSymbolTableRecord
100
AcDbBlockTableRecord
2
*MODEL_SPACE
0
BLOCK_RECORD
5
1B
100
AcDbSymbolTableRecord
100
AcDbBlockTableRecord
2
*PAPER_SPACE
0
ENDTAB
0
ENDSEC
0
SECTION
2
BLOCKS
0
BLOCK
5
20
100
AcDbEntity
100
AcDbBlockBegin
2
*MODEL_SPACE
0
ENDBLK
5
21
100
AcDbEntity
100
AcDbBlockEnd
0
BLOCK
5
1C
100
AcDbEntity
100
AcDbBlockBegin
2
*PAPER_SPACE
0
ENDBLK
5
1D
100
AcDbEntity
100
AcDbBlockEnd
0
ENDSEC
0
SECTION
2
ENTITIES
0
CIRCLE
5
100
100
AcDbEntity
8
0
100
AcDbCircle
10
-22.643398282201737
20
46.393398282201765
30
0
40
2.4999999999999991
210
0
220
0
230
1
0
CIRCLE
5
101
100
AcDbEntity
8
0
100
AcDbCircle
10
-201.35660171779821
20
232.60660171779813
30
0
40
2.4999999999999911
210
0
220
0
230
1
0
CIRCLE
5
102
100
AcDbEntity
8
0
100
AcDbCircle
10
-22.643398282201726
20
232.60660171779816
30
0
40
2.5000000000000009
210
0
220
0
230
1
0
CIRCLE
5
103
100
AcDbEntity
8
0
100
AcDbCircle
10
-201.35660171779818
20
46.393398282201794
30
0
40
2.499999999999992
210
0
220
0
230
1
0
LWPOLYLINE
5
104
100
AcDbEntity
8
0
100
AcDbPolyline
90
8
70
1
43
0.0
10
-190.69974746830582
20
226.94974746830582
10
-33.30025253169417
20
226.94974746830582
42
-0.41421356237309293
10
-28.300252531694166
20
221.94974746830584
10
-28.30025253169417
20
57.050252531694156
42
-0.41421356237309503
10
-33.30025253169417
20
52.05025253169417
10
-190.69974746830582
20
52.05025253169417
42
-0.41421356237309503
10
-195.69974746830582
20
57.05025253169417
10
-195.69974746830582
20
221.94974746830587
42
-0.41421356237309087
0
LWPOLYLINE
5
105
100
AcDbEntity
8
0
100
AcDbPolyline
90
8
70
1
43
0.0
10
-283.42766952966372
20
-5.3223304703363894
10
-100.57233047033627
20
-5.3223304703363894
42
-0.41421356237309609
10
-95.572330470336254
20
-10.322330470336389
10
-95.572330470336254
20
-200.67766952966369
42
-0.41421356237309503
10
-100.57233047033627
20
-205.67766952966369
10
-283.42766952966372
20
-205.67766952966369
42
-0.41421356237308876
10
-288.42766952966366
20
-200.67766952966369
10
-288.42766952966372
20
-10.322330470336389
42
-0.41421356237309503
0
CIRCLE
5
106
100
AcDbEntity
8
0
100
AcDbCircle
10
-102.64339828220173
20
-12.393398282201851
30
0
40
2.5000000000000009
210
0
220
0
230
1
0
CIRCLE
5
107
100
AcDbEntity
8
0
100
AcDbCircle
10
-281.35660171779818
20
-198.60660171779818
30
0
40
2.499999999999992
210
0
220
0
230
1
0
CIRCLE
5
108
100
AcDbEntity
8
0
100
AcDbCircle
10
-102.64339828220173
20
-198.60660171779824
30
0
40
2.4999999999999991
210
0
220
0
230
1
0
CIRCLE
5
109
100
AcDbEntity
8
0
100
AcDbCircle
10
-281.35660171779824
20
-12.393398282201886
30
0
40
2.4999999999999911
210
0
220
0
230
1
0
CIRCLE
5
110
100
AcDbEntity
8
0
100
AcDbCircle
10
-365.25000000000006
20
139.5
30
0
40
29.999999999999979
210
0
220
0
230
1
0
CIRCLE
5
111
100
AcDbEntity
8
0
100
AcDbCircle
10
-404.22114420000855
20
117.00001407062955
30
0
40
2.9999999999999987
210
0
220
0
230
1
0
CIRCLE
5
112
100
AcDbEntity
8
0
100
AcDbCircle
10
-326.27884618874577
20
117.0000196196857
30
0
40
2.9999999999999716
210
0
220
0
230
1
0
CIRCLE
5
113
100
AcDbEntity
8
0
100
AcDbCircle
10
-365.24999038875359
20
184.50000673805962
30
0
40
2.9999999999999716
210
0
220
0
230
1
0
CIRCLE
5
114
100
AcDbEntity
8
0
100
AcDbCircle
10
-395.24999679625023
20
-95.499993261938144
30
0
40
8.0000000000000036
210
0
220
0
230
1
0
CIRCLE
5
115
100
AcDbEntity
8
0
100
AcDbCircle
10
-395.24999679625023
20
-80.499993261938187
30
0
40
1.4999999999999951
210
0
220
0
230
1
0
CIRCLE
5
116
100
AcDbEntity
8
0
100
AcDbCircle
10
-408.24037785301687
20
-102.99999326193814
30
0
40
1.4999999999999989
210
0
220
0
230
1
0
CIRCLE
5
117
100
AcDbEntity
8
0
100
AcDbCircle
10
-382.25961573948371
20
-102.99999326193814
30
0
40
1.5000000000000002
210
0
220
0
230
1
0
CIRCLE
5
118
100
AcDbEntity
8
0
100
AcDbCircle
10
-434.22114420000855
20
-117.99998592937045
30
0
40
2.9999999999999987
210
0
220
0
230
1
0
CIRCLE
5
119
100
AcDbEntity
8
0
100
AcDbCircle
10
-356.27884618874577
20
-117.9999803803143
30
0
40
2.9999999999999716
210
0
220
0
230
1
0
CIRCLE
5
120
100
AcDbEntity
8
0
100
AcDbCircle
10
-790.25
20
164.50000000000003
30
0
40
82.5
210
0
220
0
230
1
0
CIRCLE
5
121
100
AcDbEntity
8
0
100
AcDbCircle
10
-395.24999038875359
20
-50.499993261940368
30
0
40
2.9999999999999716
210
0
220
0
230
1
0
CIRCLE
5
122
100
AcDbEntity
8
0
100
AcDbCircle
10
-600.25
20
-33.533163835771091
30
0
40
85
210
0
220
0
230
1
0
CIRCLE
5
123
100
AcDbEntity
8
0
100
AcDbCircle
10
-639.22114420000855
20
-56.033149765141559
30
0
40
2.9999999999999987
210
0
220
0
230
1
0
CIRCLE
5
124
100
AcDbEntity
8
0
100
AcDbCircle
10
-600.25
20
-33.533163835771091
30
0
40
29.999999999999979
210
0
220
0
230
1
0
CIRCLE
5
125
100
AcDbEntity
8
0
100
AcDbCircle
10
-561.27884618874577
20
-56.033144216085375
30
0
40
2.9999999999999716
210
0
220
0
230
1
0
CIRCLE
5
126
100
AcDbEntity
8
0
100
AcDbCircle
10
-600.24999038875353
20
11.466842902288548
30
0
40
2.9999999999999716
210
0
220
0
230
1
0
CIRCLE
5
127
100
AcDbEntity
8
0
100
AcDbCircle
10
-610.25
20
164.5
30
0
40
87.5
210
0
220
0
230
1
0
CIRCLE
5
128
100
AcDbEntity
8
0
100
AcDbCircle
10
-790.25
20
-35.499999999999972
30
0
40
90
210
0
220
0
230
1
0
CIRCLE
5
129
100
AcDbEntity
8
0
100
AcDbCircle
10
-571.27884618874577
20
142.00001961968576
30
0
40
2.9999999999999716
210
0
220
0
230
1
0
CIRCLE
5
130
100
AcDbEntity
8
0
100
AcDbCircle
10
-610.25
20
164.50000000000003
30
0
40
29.999999999999979
210
0
220
0
230
1
0
CIRCLE
5
131
100
AcDbEntity
8
0
100
AcDbCircle
10
-610.24999038875353
20
209.50000673805965
30
0
40
2.9999999999999716
210
0
220
0
230
1
0
CIRCLE
5
132
100
AcDbEntity
8
0
100
AcDbCircle
10
-649.22114420000855
20
142.00001407062956
30
0
40
2.9999999999999987
210
0
220
0
230
1
0
CIRCLE
5
133
100
AcDbEntity
8
0
100
AcDbCircle
10
-751.27884618874589
20
-57.999980380314256
30
0
40
2.9999999999999716
210
0
220
0
230
1
0
CIRCLE
5
134
100
AcDbEntity
8
0
100
AcDbCircle
10
-790.25
20
-35.499999999999972
30
0
40
29.999999999999979
210
0
220
0
230
1
0
CIRCLE
5
135
100
AcDbEntity
8
0
100
AcDbCircle
10
-790.24999038875364
20
9.5000067380596676
30
0
40
2.9999999999999716
210
0
220
0
230
1
0
CIRCLE
5
136
100
AcDbEntity
8
0
100
AcDbCircle
10
-829.22114420000867
20
-57.999985929370439
30
0
40
2.9999999999999987
210
0
220
0
230
1
0
CIRCLE
5
137
100
AcDbEntity
8
0
100
AcDbCircle
10
-801.25000000000023
20
-35.499999999999972
30
0
40
1.7499999999999871
210
0
220
0
230
1
0
CIRCLE
5
138
100
AcDbEntity
8
0
100
AcDbCircle
10
-790.25
20
-46.500006124377222
30
0
40
1.7499999999999774
210
0
220
0
230
1
0
CIRCLE
5
139
100
AcDbEntity
8
0
100
AcDbCircle
10
-790.25
20
-24.499999999999957
30
0
40
1.7500000000000404
210
0
220
0
230
1
0
ARC
5
140
100
AcDbEntity
8
0
100
AcDbCircle
10
-790.25
20
-35.499999999999972
30
0
40
3.000000000000095
210
0
220
0
230
1
100
AcDbArc
50
-143.13048181078571
51
143.13048181078571
0
CIRCLE
5
141
100
AcDbEntity
8
0
100
AcDbCircle
10
-779.24999999999977
20
-35.499999976064629
30
0
40
1.7500000000000393
210
0
220
0
230
1
0
LINE
5
142
100
AcDbEntity
8
0
100
AcDbLine
10
-792.65001192092905
20
-37.300005900859787
30
0
11
-792.65001192092905
21
-33.700005841255134
31
0
0
CIRCLE
5
143
100
AcDbEntity
8
0
100
AcDbCircle
10
-779.25103300409751
20
164.34924014187885
30
0
40
1.7499999999999813
210
0
220
0
230
1
0
CIRCLE
5
144
100
AcDbEntity
8
0
100
AcDbCircle
10
-801.24896699212843
20
164.34924014187885
30
0
40
1.7499999999999007
210
0
220
0
230
1
0
CIRCLE
5
145
100
AcDbEntity
8
0
100
AcDbCircle
10
-790.28509322339789
20
153.50004446931365
30
0
40
1.7499999999999951
210
0
220
0
230
1
0
CIRCLE
5
146
100
AcDbEntity
8
0
100
AcDbCircle
10
-790.28509322339789
20
175.49993251135064
30
0
40
1.7499999999999718
210
0
220
0
230
1
0
CIRCLE
5
147
100
AcDbEntity
8
0
100
AcDbCircle
10
-790.2499999981128
20
164.49998849033207
30
0
40
2.9999999999999858
210
0
220
0
230
1
0
ARC
5
148
100
AcDbEntity
8
0
100
AcDbCircle
10
-600.25
20
-33.533163835771091
30
0
40
3.000000000000095
210
0
220
0
230
1
100
AcDbArc
50
-143.13048181078571
51
143.13048181078571
0
LINE
5
149
100
AcDbEntity
8
0
100
AcDbLine
10
-602.6500119209287
20
-35.333169736630907
30
0
11
-602.6500119209287
21
-31.733169677026254
31
0
0
CIRCLE
5
150
100
AcDbEntity
8
0
100
AcDbCircle
10
-790.25
20
-35.499999999999972
30
0
40
18
210
0
220
0
230
1
0
CIRCLE
5
151
100
AcDbEntity
8
0
100
AcDbCircle
10
-600.25
20
-33.533163835771091
30
0
40
27.499999999999964
210
0
220
0
230
1
0
CIRCLE
5
152
100
AcDbEntity
8
0
100
AcDbCircle
10
-610.25
20
164.5
30
0
40
12.999999999999993
210
0
220
0
230
1
0
LINE
5
153
100
AcDbEntity
8
0
100
AcDbLine
10
-612.6500119209287
20
162.69999409914018
30
0
11
-612.6500119209287
21
166.29999415874482
31
0
0
ARC
5
154
100
AcDbEntity
8
0
100
AcDbCircle
10
-610.25
20
164.5
30
0
40
3.000000000000095
210
0
220
0
230
1
100
AcDbArc
50
-143.13048181078551
51
143.13048181078597
0
LWPOLYLINE
5
155
100
AcDbEntity
8
0
100
AcDbPolyline
90
8
70
1
43
0.0
10
-482.74999999999977
20
-3.0000000000000604
10
-307.75000000000011
20
-3.0000000000001315
42
-0.41421356237309659
10
-302.75000000000017
20
-8.000000000000087
10
-302.75000000000006
20
-183
42
-0.41421356237309709
10
-307.75000000000011
20
-188.00000000000006
10
-482.74999999999977
20
-187.99999999999997
42
-0.41421356237310336
10
-487.74999999999977
20
-182.99999999999997
10
-487.74999999999977
20
-8.0000000000000604
42
-0.41421356237309503
0
LWPOLYLINE
5
156
100
AcDbEntity
8
0
100
AcDbPolyline
90
20
70
1
43
0.0
10
-484.99995204977012
20
199.50000000000003
10
-480.00000715255737
20
199.50000000000003
10
-480.00000000000006
20
139.50000000000003
10
-484.99995204977012
20
139.50000000000003
10
-484.99995204977012
20
18.75004795021999
10
-284.99999999996879
20
18.75004795021999
10
-284.99999999996879
20
23.750000000000071
10
-240
20
23.750000000000071
10
-240
20
18.750047950229991
10
4.9999520497700614
20
18.750047950229991
10
4.9999520497700614
20
89.500000000000028
10
0
20
89.500000000000028
10
0
20
139.50000000000003
10
4.9999520497700614
20
139.50000000000003
10
4.9999520497700445
20
260.24995204977006
10
-200
20
260.24995204977006
10
-200
20
255.25
10
-240.00000000000003
20
255.25
10
-240.00000000000003
20
260.24995204977006
10
-484.99995204977012
20
260.24995204977006
0
LWPOLYLINE
5
157
100
AcDbEntity
8
0
100
AcDbPolyline
90
20
70
1
43
0.0
10
215.00004795022988
20
-14.750047950230112
10
215.00004795022988
20
-75.500000000000114
10
219.99999284744263
20
-75.500000000000114
10
219.99999999999994
20
-135.50000000000011
10
215.00004795022988
20
-135.50000000000011
10
215.00004795022988
20
-256.24995204978006
10
415.00000000003121
20
-256.24995204978006
10
415.00000000003121
20
-251.25
10
460
20
-251.25
10
460
20
-256.24995204977012
10
704.99995204977017
20
-256.24995204977012
10
704.99995204977017
20
-185.50000000000011
10
700
20
-185.50000000000011
10
700
20
-135.50000000000011
10
704.99995204977017
20
-135.50000000000011
10
704.99995204977017
20
-14.750047950230112
10
500
20
-14.750047950230112
10
500
20
-19.750000000000085
10
460
20
-19.750000000000085
10
460
20
-14.750047950230112
0
LWPOLYLINE
5
158
100
AcDbEntity
8
0
100
AcDbPolyline
90
29
70
1
43
0.0
10
215.00004795022988
20
-1.2227373494188409
10
215.00004795022988
20
-3.3349999999999991
10
215.00004795022988
20
-4.7500239751151607
10
460.00000685453415
20
-4.7500239751151607
10
460
20
-8.2777283908414656
10
460
20
-9.7500239751151607
10
500.0000074505806
20
-9.7500239751151607
10
500
20
-8.2777283908414656
10
500
20
-4.7500239751151607
10
704.99995204977017
20
-4.7500239751151607
10
704.99995204977017
20
-3.3349999999999991
10
704.99995204977017
20
14.193635804579268
10
699.99995204977017
20
14.193635804579268
10
699.99995204977017
20
34.193635804579266
10
704.99995204977017
20
34.193635804579266
10
704.99995204977017
20
71.665000000000006
10
704.99995204977017
20
75.249976024884845
10
500
20
75.249976024884845
10
500
20
76.72227160915854
10
500
20
80.24997602488483
10
460
20
80.24997602488483
10
460
20
76.72227160915854
10
460
20
75.249976024884845
10
215.00004795022988
20
75.249976024884845
10
215.00004795022988
20
71.72227160915854
10
215.00004795022988
20
62.249767129869873
10
220.00004795022988
20
62.249767129869873
10
220.00004795022988
20
35.249767129869845
10
215.00004795022988
20
35.249767129869845
0
LINE
5
159
100
AcDbEntity
8
0
100
AcDbLine
10
209.99963651151972
20
-75.500000000000114
30
0
11
204.99963651151972
21
-75.500000000000114
31
0
0
LINE
5
160
100
AcDbEntity
8
0
100
AcDbLine
10
204.99963651151972
20
-135.50000000000011
30
0
11
209.99963651151972
21
-135.50000000000495
31
0
0
LINE
5
161
100
AcDbEntity
8
0
100
AcDbLine
10
119.99963651151971
20
-75.499999999999972
30
0
11
124.99963651151971
21
-75.499999999999972
31
0
0
LINE
5
162
100
AcDbEntity
8
0
100
AcDbLine
10
124.99963651146003
20
-135.50000000000011
30
0
11
119.99963651151971
21
-135.50000000000495
31
0
0
LINE
5
163
100
AcDbEntity
8
0
100
AcDbLine
10
709.99945800133116
20
-185.50000000000011
30
0
11
714.99945800133116
21
-185.50000000000011
31
0
0
LINE
5
164
100
AcDbEntity
8
0
100
AcDbLine
10
714.99945800133116
20
-135.50000000000011
30
0
11
709.99945800133116
21
-135.50000000000011
31
0
0
LINE
5
165
100
AcDbEntity
8
0
100
AcDbLine
10
799.99945800133116
20
-135.50000000000011
30
0
11
794.99945800133116
21
-135.50000000000011
31
0
0
LINE
5
166
100
AcDbEntity
8
0
100
AcDbLine
10
794.99945800133116
20
-185.50000000000011
30
0
11
799.99945800133116
21
-185.50000000000011
31
0
0
LINE
5
167
100
AcDbEntity
8
0
100
AcDbLine
10
124.99963651146003
20
-135.50000000000011
30
0
11
124.99963651146003
21
-251.24995204978006
31
0
0
LINE
5
168
100
AcDbEntity
8
0
100
AcDbLine
10
124.99963651151971
20
-75.499999999999972
30
0
11
124.99963651151971
21
-19.750047950230112
31
0
0
LINE
5
169
100
AcDbEntity
8
0
100
AcDbLine
10
119.99963651151971
20
-75.499999999999972
30
0
11
119.99963651151971
21
-135.50000000000495
31
0
0
LINE
5
170
100
AcDbEntity
8
0
100
AcDbLine
10
209.99963651151972
20
-135.50000000000495
30
0
11
209.99963651151972
21
-75.500000000000114
31
0
0
LINE
5
171
100
AcDbEntity
8
0
100
AcDbLine
10
204.99963651151972
20
-75.500000000000114
30
0
11
204.99963651151972
21
-19.87502397511804
31
0
0
LINE
5
172
100
AcDbEntity
8
0
100
AcDbLine
10
204.99963651151972
20
-135.50000000000011
30
0
11
204.99963651151972
21
-251.24995204978006
31
0
0
LINE
5
173
100
AcDbEntity
8
0
100
AcDbLine
10
714.99945800133116
20
-185.50000000000011
30
0
11
714.99945800133116
21
-256.24995204977012
31
0
0
LINE
5
174
100
AcDbEntity
8
0
100
AcDbLine
10
799.99945800133116
20
-185.50000000000011
30
0
11
799.99945800133116
21
-135.50000000000011
31
0
0
LINE
5
175
100
AcDbEntity
8
0
100
AcDbLine
10
794.99945800133116
20
-135.50000000000011
30
0
11
794.99945800133116
21
-19.750047950230112
31
0
0
LINE
5
176
100
AcDbEntity
8
0
100
AcDbLine
10
709.99945800133116
20
-135.50000000000011
30
0
11
709.99945800133116
21
-185.50000000000011
31
0
0
LINE
5
177
100
AcDbEntity
8
0
100
AcDbLine
10
722.99945800133116
20
-256.24995204977012
30
0
11
722.99945800133116
21
-251.24995204977012
31
0
0
LINE
5
178
100
AcDbEntity
8
0
100
AcDbLine
10
722.99945800133116
20
-251.24995204977012
30
0
11
754.99945800133116
21
-251.24995204977012
31
0
0
LINE
5
179
100
AcDbEntity
8
0
100
AcDbLine
10
754.99945800133116
20
-251.24995204977012
30
0
11
754.99945800133116
21
-256.24995204977012
31
0
0
LINE
5
180
100
AcDbEntity
8
0
100
AcDbLine
10
722.99945800133116
20
-256.24995204977012
30
0
11
714.99945800133116
21
-256.24995204977012
31
0
0
LINE
5
181
100
AcDbEntity
8
0
100
AcDbLine
10
754.99945800133116
20
-256.24995204977012
30
0
11
794.99945800133116
21
-256.24995204977012
31
0
0
LINE
5
182
100
AcDbEntity
8
0
100
AcDbLine
10
754.99945800133116
20
-14.750047950230112
30
0
11
754.99945800133116
21
-19.750047950230112
31
0
0
LINE
5
183
100
AcDbEntity
8
0
100
AcDbLine
10
734.99945800133116
20
-19.750047950230112
30
0
11
734.99945800133116
21
-14.750047950230112
31
0
0
LINE
5
184
100
AcDbEntity
8
0
100
AcDbLine
10
734.99945800133116
20
-19.750047950230112
30
0
11
714.99945800133116
21
-19.750047950230112
31
0
0
LINE
5
185
100
AcDbEntity
8
0
100
AcDbLine
10
754.99945800133116
20
-19.750047950230112
30
0
11
794.99945800133116
21
-19.750047950230112
31
0
0
LINE
5
186
100
AcDbEntity
8
0
100
AcDbLine
10
734.99945800133116
20
-14.750047950230112
30
0
11
754.99945800133116
21
-14.750047950230112
31
0
0
LINE
5
187
100
AcDbEntity
8
0
100
AcDbLine
10
164.99963651151972
20
-14.875023975115056
30
0
11
137.99963651151967
21
-14.875023975115056
31
0
0
LINE
5
188
100
AcDbEntity
8
0
100
AcDbLine
10
137.99963651151967
20
-14.875023975115056
30
0
11
137.99963651151967
21
-19.875023975115056
31
0
0
LINE
5
189
100
AcDbEntity
8
0
100
AcDbLine
10
164.99963651152086
20
-19.87502397511804
30
0
11
164.99963651151972
21
-14.875023975115056
31
0
0
LINE
5
190
100
AcDbEntity
8
0
100
AcDbLine
10
164.99963651152086
20
-19.87502397511804
30
0
11
204.99963651151972
21
-19.87502397511804
31
0
0
LINE
5
191
100
AcDbEntity
8
0
100
AcDbLine
10
137.99963651151967
20
-19.875023975115056
30
0
11
124.99963651151971
21
-19.875023975115056
31
0
0
LINE
5
192
100
AcDbEntity
8
0
100
AcDbLine
10
164.99963651148988
20
-256.24995204978006
30
0
11
164.99963651148988
21
-251.24995204978006
31
0
0
LINE
5
193
100
AcDbEntity
8
0
100
AcDbLine
10
146.99963651148988
20
-251.24995204978006
30
0
11
146.99963651148988
21
-256.24995204978006
31
0
0
LINE
5
194
100
AcDbEntity
8
0
100
AcDbLine
10
146.99963651148988
20
-251.24995204978006
30
0
11
124.99963651146003
21
-251.24995204978006
31
0
0
LINE
5
195
100
AcDbEntity
8
0
100
AcDbLine
10
204.99963651151972
20
-251.24995204978006
30
0
11
164.99963651148988
21
-251.24995204978006
31
0
0
LINE
5
196
100
AcDbEntity
8
0
100
AcDbLine
10
146.99963651148988
20
-256.24995204978006
30
0
11
164.99963651148988
21
-256.24995204978006
31
0
0
LINE
5
197
100
AcDbEntity
8
0
100
AcDbLine
10
204.99963651151972
20
-251.24995204978006
30
0
11
184.99963651151978
21
-251.24995204978006
31
0
0
SPLINE
5
198
100
AcDbEntity
8
0
100
AcDbSpline
70
0
71
3
72
8
73
4
74
0
42
0.000000001
43
0.0000000001
44
0.0000000001
40
0
40
0
40
0
40
0
40
1
40
1
40
1
40
1
10
272.93061999999998
20
35.703600000000016
30
0
10
273.75880000000001
20
35.703600000000016
30
0
10
274.42993000000001
20
35.031100000000002
30
0
10
274.42993000000001
20
34.202900000000021
30
0
0
SPLINE
5
199
100
AcDbEntity
8
0
100
AcDbSpline
70
0
71
3
72
8
73
4
74
0
42
0.000000001
43
0.0000000001
44
0.0000000001
40
0
40
0
40
0
40
0
40
1
40
1
40
1
40
1
10
271.42993999999999
20
34.202900000000021
30
0
10
271.42993999999999
20
35.031100000000002
30
0
10
272.10239999999999
20
35.703600000000016
30
0
10
272.93061999999998
20
35.703600000000016
30
0
0
LWPOLYLINE
5
200
100
AcDbEntity
8
0
100
AcDbPolyline
90
1
70
1
43
0.0
10
9.4299300000000006
20
-5.5360999999999994
0
SPLINE
5
201
100
AcDbEntity
8
0
100
AcDbSpline
70
0
71
3
72
8
73
4
74
0
42
0.000000001
43
0.0000000001
44
0.0000000001
40
0
40
0
40
0
40
0
40
1
40
1
40
1
40
1
10
302.9307
20
32.671900000000001
30
0
10
302.10230000000001
20
32.671900000000001
30
0
10
301.4314
20
33.344400000000014
30
0
10
301.4314
20
34.172599999999996
30
0
0
LWPOLYLINE
5
202
100
AcDbEntity
8
0
100
AcDbPolyline
90
8
70
1
43
0.0
10
295.43119999999999
20
26.702230000000007
10
295.43119999999999
20
41.703499999999998
10
280.42989999999998
20
41.703499999999998
10
280.42989999999998
20
26.702230000000007
10
295.43119999999999
20
26.702230000000007
10
295.43119999999999
20
41.703499999999998
10
295.43119999999999
20
26.702230000000007
10
280.42989999999998
20
26.702230000000007
0
LWPOLYLINE
5
203
100
AcDbEntity
8
0
100
AcDbPolyline
90
4
70
1
43
0.0
10
280.42989999999998
20
41.703499999999998
10
280.42989999999998
20
26.702230000000007
10
280.42989999999998
20
41.703499999999998
10
295.43119999999999
20
41.703499999999998
0
SPLINE
5
204
100
AcDbEntity
8
0
100
AcDbSpline
70
0
71
3
72
8
73
4
74
0
42
0.000000001
43
0.0000000001
44
0.0000000001
40
0
40
0
40
0
40
0
40
1
40
1
40
1
40
1
10
304.43000000000001
20
34.172599999999996
30
0
10
304.43000000000001
20
33.344400000000014
30
0
10
303.7586
20
32.671900000000001
30
0
10
302.9307
20
32.671900000000001
30
0
0
SPLINE
5
205
100
AcDbEntity
8
0
100
AcDbSpline
70
0
71
3
72
8
73
4
74
0
42
0.000000001
43
0.0000000001
44
0.0000000001
40
0
40
0
40
0
40
0
40
1
40
1
40
1
40
1
10
301.4314
20
34.172599999999996
30
0
10
301.4314
20
35.000799999999977
30
0
10
302.10230000000001
20
35.671899999999972
30
0
10
302.9307
20
35.671899999999972
30
0
0
SPLINE
5
206
100
AcDbEntity
8
0
100
AcDbSpline
70
0
71
3
72
8
73
4
74
0
42
0.000000001
43
0.0000000001
44
0.0000000001
40
0
40
0
40
0
40
0
40
1
40
1
40
1
40
1
10
274.42993000000001
20
34.202900000000021
30
0
10
274.42993000000001
20
33.374699999999969
30
0
10
273.75880000000001
20
32.702200000000026
30
0
10
272.93061999999998
20
32.702200000000026
30
0
0
LWPOLYLINE
5
207
100
AcDbEntity
8
0
100
AcDbPolyline
90
1
70
1
43
0.0
10
39.43
20
-5.566399999999998
0
SPLINE
5
208
100
AcDbEntity
8
0
100
AcDbSpline
70
0
71
3
72
8
73
4
74
0
42
0.000000001
43
0.0000000001
44
0.0000000001
40
0
40
0
40
0
40
0
40
1
40
1
40
1
40
1
10
302.9307
20
35.671899999999972
30
0
10
303.7586
20
35.671899999999972
30
0
10
304.43000000000001
20
35.000799999999977
30
0
10
304.43000000000001
20
34.172599999999996
30
0
0
SPLINE
5
209
100
AcDbEntity
8
0
100
AcDbSpline
70
0
71
3
72
8
73
4
74
0
42
0.000000001
43
0.0000000001
44
0.0000000001
40
0
40
0
40
0
40
0
40
1
40
1
40
1
40
1
10
272.93061999999998
20
32.702200000000026
30
0
10
272.10239999999999
20
32.702200000000026
30
0
10
271.42993999999999
20
33.374699999999969
30
0
10
271.42993999999999
20
34.202900000000021
30
0
0
CIRCLE
5
210
100
AcDbEntity
8
0
100
AcDbCircle
10
404
20
10.865000000000018
30
0
40
1.5000000000000104
210
0
220
0
230
1
0
CIRCLE
5
211
100
AcDbEntity
8
0
100
AcDbCircle
10
405.30000000000001
20
59.125000000000021
30
0
40
1.5000000000000124
210
0
220
0
230
1
0
LINE
5
212
100
AcDbEntity
8
0
100
AcDbLine
10
215.00004795022988
20
-14.750047950230112
30
0
11
255.00004795022988
21
-14.750047950230112
31
0
0
LINE
5
213
100
AcDbEntity
8
0
100
AcDbLine
10
704.99995204977017
20
-14.750047950230112
30
0
11
664.99995204977017
21
-14.750047950230112
31
0
0
LINE
5
214
100
AcDbEntity
8
0
100
AcDbLine
10
704.99995204977017
20
-256.24995204977012
30
0
11
664.99995204977017
21
-256.24995204977012
31
0
0
LINE
5
215
100
AcDbEntity
8
0
100
AcDbLine
10
215.00004795022988
20
-256.24995204978006
30
0
11
255.00004795022988
21
-256.24995204978006
31
0
0
CIRCLE
5
216
100
AcDbEntity
8
0
100
AcDbCircle
10
243.28431919769179
20
-227.96568080231816
30
0
40
3.0000000000000044
210
0
220
0
230
1
0
CIRCLE
5
217
100
AcDbEntity
8
0
100
AcDbCircle
10
243.28431919769179
20
-43.034319197691993
30
0
40
2.9999999999999991
210
0
220
0
230
1
0
CIRCLE
5
218
100
AcDbEntity
8
0
100
AcDbCircle
10
676.71568080230827
20
-43.034319197692014
30
0
40
2.9999999999999973
210
0
220
0
230
1
0
CIRCLE
5
219
100
AcDbEntity
8
0
100
AcDbCircle
10
676.71568080230827
20
-227.96568080230821
30
0
40
2.9999999999999689
210
0
220
0
230
1
0
LWPOLYLINE
5
220
100
AcDbEntity
8
0
100
AcDbPolyline
90
4
70
1
43
0.0
10
-115.99999999999997
20
-188
10
-145
20
-188
10
-145
20
-142
10
-115.99999999999997
20
-142
0
LWPOLYLINE
5
221
100
AcDbEntity
8
0
100
AcDbPolyline
90
4
70
1
43
0.0
10
-157
20
-188
10
-186
20
-188
10
-186
20
-142
10
-157
20
-142
0
LWPOLYLINE
5
222
100
AcDbEntity
8
0
100
AcDbPolyline
90
4
70
1
43
0.0
10
-227
20
-142
10
-227
20
-188
10
-197.99999999999997
20
-188
10
-197.99999999999997
20
-142
0
LWPOLYLINE
5
223
100
AcDbEntity
8
0
100
AcDbPolyline
90
4
70
1
43
0.0
10
-268
20
-142
10
-268
20
-188
10
-239
20
-188
10
-239
20
-142
0
LWPOLYLINE
5
224
100
AcDbEntity
8
0
100
AcDbPolyline
90
5
70
1
43
0.0
10
-233
20
-132
10
-218.5
20
-132
10
-218.5
20
-85.999999999999972
10
-247.5
20
-85.999999999999972
10
-247.5
20
-132
0
LWPOLYLINE
5
225
100
AcDbEntity
8
0
100
AcDbPolyline
90
5
70
1
43
0.0
10
-192
20
-132
10
-177.5
20
-132
10
-177.5
20
-85.999999999999972
10
-206.5
20
-85.999999999999972
10
-206.5
20
-132
0
LWPOLYLINE
5
226
100
AcDbEntity
8
0
100
AcDbPolyline
90
5
70
1
43
0.0
10
-150.99999999999997
20
-132
10
-165.49999999999997
20
-132
10
-165.49999999999997
20
-85.999999999999972
10
-136.5
20
-85.999999999999972
10
-136.5
20
-132
0
LWPOLYLINE
5
227
100
AcDbEntity
8
0
100
AcDbPolyline
90
4
70
1
43
0.0
10
-239
20
-54.750000000000156
10
-268
20
-54.750000000000156
10
-268
20
-25.750000000000142
10
-239
20
-25.750000000000142
0
LWPOLYLINE
5
228
100
AcDbEntity
8
0
100
AcDbPolyline
90
4
70
1
43
0.0
10
-227
20
-54.750000000000156
10
-197.99999999999997
20
-54.750000000000156
10
-197.99999999999997
20
-25.750000000000135
10
-227
20
-25.750000000000135
0
LWPOLYLINE
5
229
100
AcDbEntity
8
0
100
AcDbPolyline
90
4
70
1
43
0.0
10
-186
20
-54.750000000000156
10
-157
20
-54.750000000000156
10
-157
20
-25.750000000000135
10
-186
20
-25.750000000000135
0
LWPOLYLINE
5
230
100
AcDbEntity
8
0
100
AcDbPolyline
90
4
70
1
43
0.0
10
-145
20
-54.750000000000156
10
-115.99999999999997
20
-54.750000000000156
10
-115.99999999999997
20
-25.750000000000142
10
-145
20
-25.750000000000142
0
LWPOLYLINE
5
231
100
AcDbEntity
8
0
100
AcDbPolyline
90
20
70
1
43
0.0
10
215.00004795022988
20
-306.25008160938091
10
220.00004795022988
20
-306.25008160938091
10
220.00004795022988
20
-324.24995204978029
10
215.00004795022988
20
-324.24995204978029
10
215.00004795022988
20
-346.25008160938091
10
415.00000000003121
20
-346.25008160938091
10
415.00000000003121
20
-351.25008160938091
10
460.00004795022988
20
-351.25008160938091
10
460.00004795022988
20
-346.25008160938091
10
700.00001043081284
20
-346.25008160938091
10
700.00001043081284
20
-306.25004795023034
10
705.00004795022983
20
-306.25008160938091
10
705.00004795022983
20
-274.25004795023034
10
700.00001043081284
20
-274.25004795023034
10
700.00001043081284
20
-266.25008160938091
10
460
20
-266.25008160938091
10
460.00004795022988
20
-261.25008160938091
10
415.00000000003121
20
-261.25008160938091
10
415.00000000003121
20
-266.25008160938091
10
215
20
-266.25008160938091
0
LINE
5
232
100
AcDbEntity
8
0
100
AcDbLine
10
794.99945800133116
20
-185.50000000000011
30
0
11
794.99945800133116
21
-256.24995204977012
31
0
0
LINE
5
233
100
AcDbEntity
8
0
100
AcDbLine
10
714.99945800133116
20
-135.50000000000011
30
0
11
714.99945800133116
21
-19.750047950230112
31
0
0
CIRCLE
5
234
100
AcDbEntity
8
0
100
AcDbCircle
10
456.10000000000002
20
15.985000000000023
30
0
40
1.5000000000000078
210
0
220
0
230
1
0
CIRCLE
5
235
100
AcDbEntity
8
0
100
AcDbCircle
10
456.10000000000002
20
43.92499999999999
30
0
40
1.4999999999999858
210
0
220
0
230
1
0
ENDSEC
0
SECTION
2
OBJECTS
0
DICTIONARY
5
C
100
AcDbDictionary
3
ACAD_GROUP
350
D
3
ACAD_MLINESTYLE
350
17
0
DICTIONARY
5
D
100
AcDbDictionary
0
DICTIONARY
5
1A
330
C
100
AcDbDictionary
0
DICTIONARY
5
17
100
AcDbDictionary
0
ENDSEC
0
EOF
